<svg width="13" height="13" viewBox="0 0 13 13" fill="none" xmlns="http://www.w3.org/2000/svg">
<path d="M5.7413 1.27359C5.90748 0.812735 6.55924 0.812735 6.72542 1.27359L7.8462 4.38166C7.91892 4.58331 8.10731 4.72019 8.32157 4.72703L11.6239 4.83251C12.1135 4.84815 12.3149 5.46801 11.928 5.76847L9.31836 7.79484C9.14905 7.92631 9.07709 8.14778 9.13679 8.35366L10.0569 11.5269C10.1934 11.9974 9.66609 12.3805 9.26076 12.1054L6.52715 10.2497C6.34979 10.1293 6.11693 10.1293 5.93957 10.2497L3.20596 12.1054C2.80063 12.3805 2.27335 11.9974 2.40979 11.5269L3.32993 8.35366C3.38963 8.14778 3.31767 7.92631 3.14836 7.79484L0.538752 5.76847C0.151809 5.46801 0.353213 4.84815 0.842865 4.83251L4.14515 4.72703C4.35941 4.72019 4.5478 4.58331 4.62052 4.38166L5.7413 1.27359Z" fill="#FF9901"/>
</svg>
