<svg width="20" height="20" viewBox="0 0 20 20" fill="none" xmlns="http://www.w3.org/2000/svg">
<rect width="20" height="20" rx="6" fill="#E62117"/>
<path d="M11.4194 12.0139V13.4487C11.4194 13.7525 11.331 13.9043 11.1542 13.9043C11.0499 13.9043 10.9479 13.8545 10.8482 13.7547V11.7079C10.9479 11.6081 11.0499 11.5583 11.1542 11.5583C11.331 11.5583 11.4194 11.7101 11.4194 12.0139ZM13.7178 12.0207V12.3335H13.1058V12.0207C13.1058 11.7124 13.2078 11.5583 13.4118 11.5583C13.6158 11.5583 13.7178 11.7124 13.7178 12.0207ZM7.14886 10.5382H7.87648V9.89902H5.75482V10.5382H6.46884V14.4075H7.14886V10.5382ZM9.10731 14.4075H9.71253V11.0482H9.10731V13.6187C8.97131 13.8091 8.84211 13.9043 8.7197 13.9043C8.6381 13.9043 8.5905 13.8567 8.5769 13.7615C8.57236 13.7479 8.5701 13.6686 8.5701 13.5235V11.0482H7.96488V13.7071C7.96488 13.9293 7.98302 14.0947 8.01928 14.2035C8.07368 14.3713 8.20515 14.4551 8.41369 14.4551C8.6313 14.4551 8.86251 14.3169 9.10731 14.0403V14.4075ZM12.0246 13.4011V12.0615C12.0246 11.7305 12.0042 11.5061 11.9634 11.3883C11.8863 11.1344 11.7254 11.0074 11.4806 11.0074C11.2539 11.0074 11.0431 11.1298 10.8482 11.3747V9.89902H10.2429V14.4075H10.8482V14.0811C11.0522 14.3305 11.263 14.4551 11.4806 14.4551C11.7254 14.4551 11.8863 14.3305 11.9634 14.0811C12.0042 13.9587 12.0246 13.7321 12.0246 13.4011ZM14.3231 13.3331V13.2447H13.7042C13.7042 13.4759 13.6997 13.6142 13.6906 13.6595C13.6589 13.8227 13.5682 13.9043 13.4186 13.9043C13.2101 13.9043 13.1058 13.7479 13.1058 13.4351V12.8435H14.3231V12.1431C14.3231 11.7849 14.2619 11.522 14.1395 11.3543C13.9626 11.123 13.7224 11.0074 13.4186 11.0074C13.1104 11.0074 12.8678 11.123 12.691 11.3543C12.5641 11.522 12.5006 11.7849 12.5006 12.1431V13.3195C12.5006 13.6777 12.5663 13.9406 12.6978 14.1083C12.8746 14.3395 13.1194 14.4551 13.4322 14.4551C13.7586 14.4551 14.0034 14.335 14.1667 14.0947C14.2483 13.9723 14.2959 13.8499 14.3095 13.7275C14.3185 13.6867 14.3231 13.5552 14.3231 13.3331ZM10.1885 7.12454V5.6965C10.1885 5.38369 10.0911 5.22729 9.89613 5.22729C9.7012 5.22729 9.60373 5.38369 9.60373 5.6965V7.12454C9.60373 7.44188 9.7012 7.60055 9.89613 7.60055C10.0911 7.60055 10.1885 7.44188 10.1885 7.12454ZM15.0779 12.2315C15.0779 13.2923 15.0189 14.0857 14.9011 14.6115C14.8376 14.879 14.7061 15.1034 14.5067 15.2848C14.3072 15.4661 14.076 15.5704 13.813 15.5976C12.9789 15.6928 11.7209 15.7404 10.0389 15.7404C8.35703 15.7404 7.09899 15.6928 6.26483 15.5976C6.00189 15.5704 5.76955 15.4661 5.56782 15.2848C5.36608 15.1034 5.23574 14.879 5.1768 14.6115C5.05893 14.1038 5 13.3104 5 12.2315C5 11.1707 5.05893 10.3773 5.1768 9.85142C5.24027 9.58394 5.37174 9.35954 5.57122 9.1782C5.77069 8.99686 6.00416 8.89032 6.27163 8.85859C7.10126 8.76792 8.35703 8.72258 10.0389 8.72258C11.7209 8.72258 12.9789 8.76792 13.813 8.85859C14.076 8.89032 14.3083 8.99686 14.5101 9.1782C14.7118 9.35954 14.8421 9.58394 14.9011 9.85142C15.0189 10.3592 15.0779 11.1525 15.0779 12.2315ZM8.29129 3.55444H8.98491L8.16209 6.26772V8.11057H7.48207V6.26772C7.4186 5.93224 7.28033 5.4517 7.06726 4.82608C6.89952 4.35913 6.75218 3.93525 6.62524 3.55444H7.34606L7.82888 5.34289L8.29129 3.55444ZM10.8074 5.81891V7.00894C10.8074 7.37615 10.7439 7.64362 10.617 7.81136C10.4492 8.04257 10.2089 8.15817 9.89613 8.15817C9.59239 8.15817 9.35439 8.04257 9.18211 7.81136C9.05518 7.63909 8.99171 7.37161 8.99171 7.00894V5.81891C8.99171 5.45623 9.05518 5.19102 9.18211 5.02328C9.35439 4.79208 9.59239 4.67647 9.89613 4.67647C10.2089 4.67647 10.4492 4.79208 10.617 5.02328C10.7439 5.19102 10.8074 5.45623 10.8074 5.81891ZM13.0854 4.71728V8.11057H12.4666V7.73656C12.2263 8.01763 11.9929 8.15817 11.7662 8.15817C11.5576 8.15817 11.4239 8.0743 11.365 7.90656C11.3287 7.79776 11.3106 7.62775 11.3106 7.39655V4.71728H11.9294V7.21294C11.9294 7.36255 11.9317 7.44188 11.9362 7.45095C11.9498 7.55069 11.9974 7.60055 12.079 7.60055C12.2014 7.60055 12.3306 7.50308 12.4666 7.30815V4.71728H13.0854Z" fill="white"/>
</svg>
