<svg width="20" height="20" viewBox="0 0 20 20" fill="none" xmlns="http://www.w3.org/2000/svg">
<rect width="20" height="20" rx="6" fill="#E32D46"/>
<path d="M11.4456 11.451C11.4456 11.451 11.5351 11.3615 11.714 11.1826C11.893 11.0036 11.9825 10.6612 11.9825 10.1554C11.9825 9.64953 11.8035 9.21766 11.4456 8.85976C11.0877 8.50185 10.6558 8.3229 10.15 8.3229C9.64416 8.3229 9.21229 8.50185 8.85439 8.85976C8.49648 9.21766 8.31753 9.64953 8.31753 10.1554C8.31753 10.6612 8.49648 11.0931 8.85439 11.451C9.21229 11.8089 9.64416 11.9878 10.15 11.9878C10.6558 11.9878 11.0877 11.8089 11.4456 11.451ZM12.1471 8.15827C12.1471 8.15827 12.2843 8.29546 12.5587 8.56986C12.8331 8.84425 12.9703 9.37275 12.9703 10.1554C12.9703 10.938 12.6959 11.6037 12.1471 12.1525C11.5983 12.7013 10.9326 12.9757 10.15 12.9757C9.36738 12.9757 8.70168 12.7013 8.15289 12.1525C7.60411 11.6037 7.32971 10.938 7.32971 10.1554C7.32971 9.37275 7.60411 8.70705 8.15289 8.15827C8.70168 7.60948 9.36738 7.33508 10.15 7.33508C10.9326 7.33508 11.5983 7.60948 12.1471 8.15827ZM13.5501 6.75528C13.5501 6.75528 13.5823 6.78749 13.6467 6.85191C13.7112 6.91634 13.7434 7.03922 13.7434 7.22056C13.7434 7.40189 13.6789 7.55699 13.5501 7.68583C13.4212 7.81468 13.2662 7.8791 13.0848 7.8791C12.9035 7.8791 12.7484 7.81468 12.6195 7.68583C12.4907 7.55699 12.4263 7.40189 12.4263 7.22056C12.4263 7.03922 12.4907 6.88413 12.6195 6.75528C12.7484 6.62643 12.9035 6.56201 13.0848 6.56201C13.2662 6.56201 13.4212 6.62643 13.5501 6.75528ZM10.6976 5.6422C10.6976 5.6422 10.6147 5.64279 10.4489 5.64399C10.283 5.64518 10.1834 5.64578 10.15 5.64578C10.1166 5.64578 9.93407 5.64458 9.60241 5.6422C9.27075 5.63981 9.01902 5.63981 8.84723 5.6422C8.67543 5.64458 8.44518 5.65174 8.15647 5.66367C7.86776 5.6756 7.622 5.69946 7.41919 5.73525C7.21638 5.77104 7.04578 5.81518 6.90739 5.86768C6.66878 5.96312 6.45881 6.10151 6.27747 6.28285C6.09614 6.46418 5.95775 6.67415 5.86231 6.91276C5.80981 7.05115 5.76567 7.22175 5.72988 7.42456C5.69409 7.62737 5.67023 7.87313 5.6583 8.16184C5.64637 8.45055 5.63921 8.68081 5.63683 8.8526C5.63444 9.02439 5.63444 9.27612 5.63683 9.60778C5.63921 9.93944 5.6404 10.122 5.6404 10.1554C5.6404 10.1888 5.63921 10.3713 5.63683 10.703C5.63444 11.0346 5.63444 11.2864 5.63683 11.4581C5.63921 11.6299 5.64637 11.8602 5.6583 12.1489C5.67023 12.4376 5.69409 12.6834 5.72988 12.8862C5.76567 13.089 5.80981 13.2596 5.86231 13.398C5.95775 13.6366 6.09614 13.8466 6.27747 14.0279C6.45881 14.2092 6.66878 14.3476 6.90739 14.4431C7.04578 14.4956 7.21638 14.5397 7.41919 14.5755C7.622 14.6113 7.86776 14.6351 8.15647 14.6471C8.44518 14.659 8.67543 14.6662 8.84723 14.6685C9.01902 14.6709 9.27075 14.6709 9.60241 14.6685C9.93407 14.6662 10.1166 14.665 10.15 14.665C10.1834 14.665 10.3659 14.6662 10.6976 14.6685C11.0293 14.6709 11.281 14.6709 11.4528 14.6685C11.6246 14.6662 11.8548 14.659 12.1435 14.6471C12.4322 14.6351 12.678 14.6113 12.8808 14.5755C13.0836 14.5397 13.2542 14.4956 13.3926 14.4431C13.6312 14.3476 13.8412 14.2092 14.0225 14.0279C14.2039 13.8466 14.3423 13.6366 14.4377 13.398C14.4902 13.2596 14.5343 13.089 14.5701 12.8862C14.6059 12.6834 14.6298 12.4376 14.6417 12.1489C14.6536 11.8602 14.6608 11.6299 14.6632 11.4581C14.6656 11.2864 14.6656 11.0346 14.6632 10.703C14.6608 10.3713 14.6596 10.1888 14.6596 10.1554C14.6596 10.122 14.6608 9.93944 14.6632 9.60778C14.6656 9.27612 14.6656 9.02439 14.6632 8.8526C14.6608 8.68081 14.6536 8.45055 14.6417 8.16184C14.6298 7.87313 14.6059 7.62737 14.5701 7.42456C14.5343 7.22175 14.4902 7.05115 14.4377 6.91276C14.3423 6.67415 14.2039 6.46418 14.0225 6.28285C13.8412 6.10151 13.6312 5.96312 13.3926 5.86768C13.2542 5.81518 13.0836 5.77104 12.8808 5.73525C12.678 5.69946 12.4322 5.6756 12.1435 5.66367C11.8548 5.65174 11.6246 5.64458 11.4528 5.6422C11.281 5.63981 11.0293 5.63981 10.6976 5.6422ZM15.6116 7.88626C15.6355 8.3062 15.6474 9.06257 15.6474 10.1554C15.6474 11.2482 15.6355 12.0045 15.6116 12.4245C15.5639 13.4171 15.268 14.1854 14.724 14.7294C14.18 15.2734 13.4117 15.5693 12.4191 15.617C11.9992 15.6409 11.2428 15.6528 10.15 15.6528C9.0572 15.6528 8.30083 15.6409 7.88089 15.617C6.8883 15.5693 6.12 15.2734 5.57598 14.7294C5.03197 14.1854 4.7361 13.4171 4.68838 12.4245C4.66452 12.0045 4.65259 11.2482 4.65259 10.1554C4.65259 9.06257 4.66452 8.3062 4.68838 7.88626C4.7361 6.89367 5.03197 6.12537 5.57598 5.58135C6.12 5.03734 6.8883 4.74147 7.88089 4.69375C8.30083 4.66989 9.0572 4.65796 10.15 4.65796C11.2428 4.65796 11.9992 4.66989 12.4191 4.69375C13.4117 4.74147 14.18 5.03734 14.724 5.58135C15.268 6.12537 15.5639 6.89367 15.6116 7.88626Z" fill="white"/>
</svg>
